<?xml version="1.0" encoding="UTF-8" standalone="no"?>
<!DOCTYPE svg PUBLIC "-//W3C//DTD SVG 1.1//EN"
 "http://www.w3.org/Graphics/SVG/1.1/DTD/svg11.dtd">
<!-- Generated by graphviz version 2.44.1 (20200629.0846)
 -->
<!-- Title: G Pages: 1 -->
<svg width="856pt" height="580pt"
 viewBox="0.00 0.00 856.20 580.13" xmlns="http://www.w3.org/2000/svg" xmlns:xlink="http://www.w3.org/1999/xlink">
<g id="graph0" class="graph" transform="scale(1 1) rotate(0) translate(4 576.13)">
<title>G</title><style>.edge>path:hover{stroke-width:8}</style>
<polygon fill="white" stroke="transparent" points="-4,4 -4,-576.13 852.2,-576.13 852.2,4 -4,4"/>
<!-- celery -->
<g id="node1" class="node">
<title>celery</title><style>.edge>path:hover{stroke-width:8}</style>
<ellipse fill="#c04040" stroke="black" cx="175.52" cy="-406.92" rx="27" ry="18"/>
<text text-anchor="middle" x="175.52" y="-404.42" font-family="Helvetica,sans-Serif" font-size="10.00" fill="#ffffff">celery</text>
</g>
<!-- tabellen_config -->
<g id="node14" class="node">
<title>tabellen_config</title><style>.edge>path:hover{stroke-width:8}</style>
<ellipse fill="#b42d7e" stroke="black" cx="204.52" cy="-250.07" rx="37.45" ry="21.43"/>
<text text-anchor="middle" x="204.52" y="-253.07" font-family="Helvetica,sans-Serif" font-size="10.00" fill="#ffffff">tabellen.</text>
<text text-anchor="middle" x="204.52" y="-242.07" font-family="Helvetica,sans-Serif" font-size="10.00" fill="#ffffff">config</text>
</g>
<!-- celery&#45;&gt;tabellen_config -->
<g id="edge1" class="edge">
<title>celery&#45;&gt;tabellen_config</title><style>.edge>path:hover{stroke-width:8}</style>
<path fill="none" stroke="black" d="M195.83,-394.7C223.9,-378.48 270.96,-348.37 269.52,-329.49"/>
<path fill="none" stroke="black" d="M269.52,-327.49C267.85,-305.6 252.07,-286.74 236.48,-273.24"/>
<polygon fill="#c04040" stroke="black" points="238.38,-270.27 228.42,-266.67 233.96,-275.7 238.38,-270.27"/>
</g>
<!-- connexion -->
<g id="node2" class="node">
<title>connexion</title><style>.edge>path:hover{stroke-width:8}</style>
<ellipse fill="#c29147" stroke="black" cx="38.52" cy="-406.92" rx="35.82" ry="18"/>
<text text-anchor="middle" x="38.52" y="-404.42" font-family="Helvetica,sans-Serif" font-size="10.00" fill="#000000">connexion</text>
</g>
<!-- tabellen_api -->
<g id="node12" class="node">
<title>tabellen_api</title><style>.edge>path:hover{stroke-width:8}</style>
<ellipse fill="#8f3d6e" stroke="black" cx="220.52" cy="-18" rx="38.7" ry="18"/>
<text text-anchor="middle" x="220.52" y="-15.5" font-family="Helvetica,sans-Serif" font-size="10.00" fill="#ffffff">tabellen.api</text>
</g>
<!-- connexion&#45;&gt;tabellen_api -->
<g id="edge2" class="edge">
<title>connexion&#45;&gt;tabellen_api</title><style>.edge>path:hover{stroke-width:8}</style>
<path fill="none" stroke="black" d="M19.52,-92.21C42.75,-35.46 119.64,-21.46 171.3,-18.67"/>
<polygon fill="#c29147" stroke="black" points="171.74,-22.16 181.59,-18.25 171.45,-15.16 171.74,-22.16"/>
<path fill="none" stroke="black" d="M32.49,-388.86C16.42,-340.48 -23.41,-199.08 19.52,-94.21"/>
</g>
<!-- connexion&#45;&gt;tabellen_config -->
<g id="edge3" class="edge">
<title>connexion&#45;&gt;tabellen_config</title><style>.edge>path:hover{stroke-width:8}</style>
<path fill="none" stroke="black" d="M60.91,-392.83C78.09,-382.26 101.92,-366.45 120.52,-349.71 127.37,-343.53 159.93,-304.77 182.44,-277.72"/>
<polygon fill="#c29147" stroke="black" points="185.36,-279.68 189.06,-269.75 179.98,-275.2 185.36,-279.68"/>
</g>
<!-- flask_pymongo -->
<g id="node3" class="node">
<title>flask_pymongo</title><style>.edge>path:hover{stroke-width:8}</style>
<ellipse fill="#a6c040" stroke="black" cx="269.52" cy="-406.92" rx="48.72" ry="18"/>
<text text-anchor="middle" x="269.52" y="-404.42" font-family="Helvetica,sans-Serif" font-size="10.00" fill="#000000">flask_pymongo</text>
</g>
<!-- flask_pymongo&#45;&gt;tabellen_config -->
<g id="edge4" class="edge">
<title>flask_pymongo&#45;&gt;tabellen_config</title><style>.edge>path:hover{stroke-width:8}</style>
<path fill="none" stroke="black" d="M270.26,-388.89C270.76,-373.39 271.07,-349.87 269.52,-329.49"/>
</g>
<!-- googleapiclient -->
<g id="node4" class="node">
<title>googleapiclient</title><style>.edge>path:hover{stroke-width:8}</style>
<ellipse fill="#60c247" stroke="black" cx="800.52" cy="-406.92" rx="47.86" ry="18"/>
<text text-anchor="middle" x="800.52" y="-404.42" font-family="Helvetica,sans-Serif" font-size="10.00" fill="#000000">googleapiclient</text>
</g>
<!-- tabellen_sheets -->
<g id="node18" class="node">
<title>tabellen_sheets</title><style>.edge>path:hover{stroke-width:8}</style>
<ellipse fill="#a32872" stroke="black" cx="378.52" cy="-250.07" rx="37.45" ry="21.43"/>
<text text-anchor="middle" x="378.52" y="-253.07" font-family="Helvetica,sans-Serif" font-size="10.00" fill="#ffffff">tabellen.</text>
<text text-anchor="middle" x="378.52" y="-242.07" font-family="Helvetica,sans-Serif" font-size="10.00" fill="#ffffff">sheets</text>
</g>
<!-- googleapiclient&#45;&gt;tabellen_sheets -->
<g id="edge5" class="edge">
<title>googleapiclient&#45;&gt;tabellen_sheets</title><style>.edge>path:hover{stroke-width:8}</style>
<path fill="none" stroke="black" d="M768.59,-393.42C760.5,-390.58 751.76,-387.79 743.52,-385.71 642.35,-360.16 603.82,-398.36 511.52,-349.71 500.61,-343.96 501.72,-337.7 492.52,-329.49"/>
</g>
<!-- googleapiclient_discovery -->
<g id="node5" class="node">
<title>googleapiclient_discovery</title><style>.edge>path:hover{stroke-width:8}</style>
<ellipse fill="#5dac49" stroke="black" cx="433.52" cy="-406.92" rx="59.29" ry="21.43"/>
<text text-anchor="middle" x="433.52" y="-409.92" font-family="Helvetica,sans-Serif" font-size="10.00" fill="#000000">googleapiclient.</text>
<text text-anchor="middle" x="433.52" y="-398.92" font-family="Helvetica,sans-Serif" font-size="10.00" fill="#000000">discovery</text>
</g>
<!-- googleapiclient_discovery&#45;&gt;tabellen_sheets -->
<g id="edge6" class="edge">
<title>googleapiclient_discovery&#45;&gt;tabellen_sheets</title><style>.edge>path:hover{stroke-width:8}</style>
<path fill="none" stroke="black" d="M462.43,-388.01C485.86,-371.47 512.04,-346.89 492.52,-329.49"/>
</g>
<!-- httplib2 -->
<g id="node6" class="node">
<title>httplib2</title><style>.edge>path:hover{stroke-width:8}</style>
<ellipse fill="#33cc70" stroke="black" cx="346.52" cy="-554.13" rx="28.01" ry="18"/>
<text text-anchor="middle" x="346.52" y="-551.63" font-family="Helvetica,sans-Serif" font-size="10.00" fill="#000000">httplib2</text>
</g>
<!-- httplib2&#45;&gt;googleapiclient_discovery -->
<g id="edge7" class="edge">
<title>httplib2&#45;&gt;googleapiclient_discovery</title><style>.edge>path:hover{stroke-width:8}</style>
<path fill="none" stroke="black" d="M346.52,-481.13C352.48,-458.91 371.05,-441.75 389.5,-429.65"/>
<polygon fill="#33cc70" stroke="black" points="391.54,-432.5 398.21,-424.27 387.86,-426.54 391.54,-432.5"/>
</g>
<!-- httplib2&#45;&gt;tabellen_sheets -->
<g id="edge8" class="edge">
<title>httplib2&#45;&gt;tabellen_sheets</title><style>.edge>path:hover{stroke-width:8}</style>
<path fill="none" stroke="black" d="M492.52,-327.49C467.92,-305.56 436.62,-285.01 413.04,-270.76"/>
<polygon fill="#33cc70" stroke="black" points="414.79,-267.73 404.41,-265.62 411.21,-273.75 414.79,-267.73"/>
<path fill="none" stroke="black" d="M346.52,-481.13C357.73,-439.37 338.49,-419.46 365.52,-385.71 404.11,-337.53 538.59,-370.57 492.52,-329.49"/>
<path fill="none" stroke="black" d="M343.85,-536.05C342.22,-521.64 341.33,-500.61 346.52,-483.13"/>
</g>
<!-- jwt -->
<g id="node7" class="node">
<title>jwt</title><style>.edge>path:hover{stroke-width:8}</style>
<ellipse fill="#53b6b6" stroke="black" cx="498.52" cy="-250.07" rx="27" ry="18"/>
<text text-anchor="middle" x="498.52" y="-247.57" font-family="Helvetica,sans-Serif" font-size="10.00" fill="#000000">jwt</text>
</g>
<!-- tabellen_hooks -->
<g id="node16" class="node">
<title>tabellen_hooks</title><style>.edge>path:hover{stroke-width:8}</style>
<ellipse fill="#b83d87" stroke="black" cx="295.52" cy="-93.21" rx="47.19" ry="18"/>
<text text-anchor="middle" x="295.52" y="-90.71" font-family="Helvetica,sans-Serif" font-size="10.00" fill="#ffffff">tabellen.hooks</text>
</g>
<!-- jwt&#45;&gt;tabellen_hooks -->
<g id="edge9" class="edge">
<title>jwt&#45;&gt;tabellen_hooks</title><style>.edge>path:hover{stroke-width:8}</style>
<path fill="none" stroke="black" d="M489.81,-232.67C477.7,-211.23 453.91,-173.66 424.52,-150.43 400.05,-131.08 367.9,-117.05 341.81,-107.84"/>
<polygon fill="#53b6b6" stroke="black" points="342.74,-104.46 332.14,-104.55 340.48,-111.08 342.74,-104.46"/>
</g>
<!-- oauth2client -->
<g id="node8" class="node">
<title>oauth2client</title><style>.edge>path:hover{stroke-width:8}</style>
<ellipse fill="#4778c2" stroke="black" cx="551.52" cy="-406.92" rx="40.74" ry="18"/>
<text text-anchor="middle" x="551.52" y="-404.42" font-family="Helvetica,sans-Serif" font-size="10.00" fill="#ffffff">oauth2client</text>
</g>
<!-- oauth2client&#45;&gt;tabellen_sheets -->
<g id="edge10" class="edge">
<title>oauth2client&#45;&gt;tabellen_sheets</title><style>.edge>path:hover{stroke-width:8}</style>
<path fill="none" stroke="black" d="M539.86,-389.39C525.95,-369.93 503.22,-339.03 492.52,-329.49"/>
</g>
<!-- oauth2client_service_account -->
<g id="node9" class="node">
<title>oauth2client_service_account</title><style>.edge>path:hover{stroke-width:8}</style>
<ellipse fill="#4c75b3" stroke="black" cx="672.52" cy="-406.92" rx="62.45" ry="21.43"/>
<text text-anchor="middle" x="672.52" y="-409.92" font-family="Helvetica,sans-Serif" font-size="10.00" fill="#ffffff">oauth2client.</text>
<text text-anchor="middle" x="672.52" y="-398.92" font-family="Helvetica,sans-Serif" font-size="10.00" fill="#ffffff">service_account</text>
</g>
<!-- oauth2client_service_account&#45;&gt;tabellen_sheets -->
<g id="edge11" class="edge">
<title>oauth2client_service_account&#45;&gt;tabellen_sheets</title><style>.edge>path:hover{stroke-width:8}</style>
<path fill="none" stroke="black" d="M626.49,-392.53C586.08,-380.29 530.82,-362.25 511.52,-349.71 501.18,-342.99 501.72,-337.7 492.52,-329.49"/>
</g>
<!-- pydantic -->
<g id="node10" class="node">
<title>pydantic</title><style>.edge>path:hover{stroke-width:8}</style>
<ellipse fill="#6753b6" stroke="black" cx="120.52" cy="-482.13" rx="31.4" ry="18"/>
<text text-anchor="middle" x="120.52" y="-479.63" font-family="Helvetica,sans-Serif" font-size="10.00" fill="#ffffff">pydantic</text>
</g>
<!-- tabellen_settings -->
<g id="node17" class="node">
<title>tabellen_settings</title><style>.edge>path:hover{stroke-width:8}</style>
<ellipse fill="#c0408c" stroke="black" cx="204.52" cy="-328.49" rx="37.45" ry="21.43"/>
<text text-anchor="middle" x="204.52" y="-331.49" font-family="Helvetica,sans-Serif" font-size="10.00" fill="#ffffff">tabellen.</text>
<text text-anchor="middle" x="204.52" y="-320.49" font-family="Helvetica,sans-Serif" font-size="10.00" fill="#ffffff">settings</text>
</g>
<!-- pydantic&#45;&gt;tabellen_settings -->
<g id="edge12" class="edge">
<title>pydantic&#45;&gt;tabellen_settings</title><style>.edge>path:hover{stroke-width:8}</style>
<path fill="none" stroke="black" d="M120.63,-464.11C121.48,-444.06 125.16,-410.38 139.52,-385.71 147.45,-372.09 159.9,-360.14 171.79,-350.8"/>
<polygon fill="#6753b6" stroke="black" points="173.96,-353.55 179.87,-344.76 169.77,-347.94 173.96,-353.55"/>
</g>
<!-- requests -->
<g id="node11" class="node">
<title>requests</title><style>.edge>path:hover{stroke-width:8}</style>
<ellipse fill="#a640c0" stroke="black" cx="79.52" cy="-328.49" rx="31.58" ry="18"/>
<text text-anchor="middle" x="79.52" y="-325.99" font-family="Helvetica,sans-Serif" font-size="10.00" fill="#ffffff">requests</text>
</g>
<!-- tabellen_tasks -->
<g id="node20" class="node">
<title>tabellen_tasks</title><style>.edge>path:hover{stroke-width:8}</style>
<ellipse fill="#c43189" stroke="black" cx="92.52" cy="-171.64" rx="45.15" ry="18"/>
<text text-anchor="middle" x="92.52" y="-169.14" font-family="Helvetica,sans-Serif" font-size="10.00" fill="#ffffff">tabellen.tasks</text>
</g>
<!-- requests&#45;&gt;tabellen_tasks -->
<g id="edge13" class="edge">
<title>requests&#45;&gt;tabellen_tasks</title><style>.edge>path:hover{stroke-width:8}</style>
<path fill="none" stroke="black" d="M80.96,-310.33C83.2,-283.59 87.56,-231.74 90.23,-199.86"/>
<polygon fill="#a640c0" stroke="black" points="93.72,-200.14 91.07,-189.88 86.75,-199.55 93.72,-200.14"/>
</g>
<!-- tabellen_clients -->
<g id="node13" class="node">
<title>tabellen_clients</title><style>.edge>path:hover{stroke-width:8}</style>
<ellipse fill="#c43189" stroke="black" cx="378.52" cy="-171.64" rx="37.45" ry="21.43"/>
<text text-anchor="middle" x="378.52" y="-174.64" font-family="Helvetica,sans-Serif" font-size="10.00" fill="#ffffff">tabellen.</text>
<text text-anchor="middle" x="378.52" y="-163.64" font-family="Helvetica,sans-Serif" font-size="10.00" fill="#ffffff">clients</text>
</g>
<!-- tabellen_clients&#45;&gt;tabellen_api -->
<g id="edge14" class="edge">
<title>tabellen_clients&#45;&gt;tabellen_api</title><style>.edge>path:hover{stroke-width:8}</style>
<path fill="none" stroke="black" d="M378.09,-150.41C376.57,-128.54 370.98,-93.89 351.52,-72 329.74,-47.51 295.02,-34.14 266.79,-26.96"/>
<polygon fill="#c43189" stroke="black" points="267.26,-23.48 256.72,-24.59 265.65,-30.29 267.26,-23.48"/>
</g>
<!-- tabellen_events -->
<g id="node15" class="node">
<title>tabellen_events</title><style>.edge>path:hover{stroke-width:8}</style>
<ellipse fill="#b83d87" stroke="black" cx="155.52" cy="-93.21" rx="37.45" ry="21.43"/>
<text text-anchor="middle" x="155.52" y="-96.21" font-family="Helvetica,sans-Serif" font-size="10.00" fill="#ffffff">tabellen.</text>
<text text-anchor="middle" x="155.52" y="-85.21" font-family="Helvetica,sans-Serif" font-size="10.00" fill="#ffffff">events</text>
</g>
<!-- tabellen_clients&#45;&gt;tabellen_events -->
<g id="edge15" class="edge">
<title>tabellen_clients&#45;&gt;tabellen_events</title><style>.edge>path:hover{stroke-width:8}</style>
<path fill="none" stroke="black" d="M349.87,-157.79C343.85,-155.24 337.51,-152.67 331.52,-150.43 286.48,-133.59 233.84,-117.2 197.94,-106.5"/>
<polygon fill="#c43189" stroke="black" points="198.86,-103.12 188.28,-103.64 196.87,-109.84 198.86,-103.12"/>
</g>
<!-- tabellen_storage -->
<g id="node19" class="node">
<title>tabellen_storage</title><style>.edge>path:hover{stroke-width:8}</style>
<ellipse fill="#c0408c" stroke="black" cx="285.52" cy="-171.64" rx="37.45" ry="21.43"/>
<text text-anchor="middle" x="285.52" y="-174.64" font-family="Helvetica,sans-Serif" font-size="10.00" fill="#ffffff">tabellen.</text>
<text text-anchor="middle" x="285.52" y="-163.64" font-family="Helvetica,sans-Serif" font-size="10.00" fill="#ffffff">storage</text>
</g>
<!-- tabellen_config&#45;&gt;tabellen_storage -->
<g id="edge16" class="edge">
<title>tabellen_config&#45;&gt;tabellen_storage</title><style>.edge>path:hover{stroke-width:8}</style>
<path fill="none" stroke="black" d="M223.31,-231.34C234.04,-221.21 247.66,-208.36 259.42,-197.26"/>
<polygon fill="#b42d7e" stroke="black" points="261.96,-199.68 266.83,-190.27 257.16,-194.59 261.96,-199.68"/>
</g>
<!-- tabellen_config&#45;&gt;tabellen_tasks -->
<g id="edge17" class="edge">
<title>tabellen_config&#45;&gt;tabellen_tasks</title><style>.edge>path:hover{stroke-width:8}</style>
<path fill="none" stroke="black" d="M181.31,-233.23C164.46,-221.73 141.5,-206.06 123.15,-193.54"/>
<polygon fill="#b42d7e" stroke="black" points="124.79,-190.42 114.55,-187.67 120.84,-196.2 124.79,-190.42"/>
</g>
<!-- tabellen_events&#45;&gt;tabellen_api -->
<g id="edge18" class="edge">
<title>tabellen_events&#45;&gt;tabellen_api</title><style>.edge>path:hover{stroke-width:8}</style>
<path fill="none" stroke="black" d="M171.92,-73.74C180.23,-64.38 190.42,-52.9 199.32,-42.88"/>
<polygon fill="#b83d87" stroke="black" points="202.09,-45.03 206.11,-35.23 196.86,-40.38 202.09,-45.03"/>
</g>
<!-- tabellen_hooks&#45;&gt;tabellen_api -->
<g id="edge19" class="edge">
<title>tabellen_hooks&#45;&gt;tabellen_api</title><style>.edge>path:hover{stroke-width:8}</style>
<path fill="none" stroke="black" d="M278.87,-75.96C268.57,-65.9 255.17,-52.83 243.82,-41.75"/>
<polygon fill="#b83d87" stroke="black" points="245.95,-38.93 236.35,-34.45 241.06,-43.94 245.95,-38.93"/>
</g>
<!-- tabellen_settings&#45;&gt;tabellen_config -->
<g id="edge20" class="edge">
<title>tabellen_settings&#45;&gt;tabellen_config</title><style>.edge>path:hover{stroke-width:8}</style>
<path fill="none" stroke="black" d="M204.52,-307.01C204.52,-299.15 204.52,-290.01 204.52,-281.42"/>
<polygon fill="#c0408c" stroke="black" points="208.02,-281.34 204.52,-271.34 201.02,-281.34 208.02,-281.34"/>
</g>
<!-- tabellen_sheets&#45;&gt;tabellen_api -->
<g id="edge21" class="edge">
<title>tabellen_sheets&#45;&gt;tabellen_api</title><style>.edge>path:hover{stroke-width:8}</style>
<path fill="none" stroke="black" d="M342.05,-244.75C309.68,-238.85 263.86,-225.03 239.52,-192.85 207.09,-149.99 210.43,-83.27 215.57,-46.19"/>
<polygon fill="#a32872" stroke="black" points="219.06,-46.54 217.11,-36.13 212.14,-45.48 219.06,-46.54"/>
</g>
<!-- tabellen_sheets&#45;&gt;tabellen_clients -->
<g id="edge22" class="edge">
<title>tabellen_sheets&#45;&gt;tabellen_clients</title><style>.edge>path:hover{stroke-width:8}</style>
<path fill="none" stroke="black" d="M378.52,-228.59C378.52,-220.73 378.52,-211.58 378.52,-202.99"/>
<polygon fill="#a32872" stroke="black" points="382.02,-202.91 378.52,-192.91 375.02,-202.91 382.02,-202.91"/>
</g>
<!-- tabellen_storage&#45;&gt;tabellen_hooks -->
<g id="edge23" class="edge">
<title>tabellen_storage&#45;&gt;tabellen_hooks</title><style>.edge>path:hover{stroke-width:8}</style>
<path fill="none" stroke="black" d="M288.2,-150.16C289.34,-141.42 290.69,-131.09 291.92,-121.7"/>
<polygon fill="#c0408c" stroke="black" points="295.41,-122.01 293.24,-111.64 288.47,-121.1 295.41,-122.01"/>
</g>
<!-- tabellen_tasks&#45;&gt;tabellen_api -->
<g id="edge24" class="edge">
<title>tabellen_tasks&#45;&gt;tabellen_api</title><style>.edge>path:hover{stroke-width:8}</style>
<path fill="none" stroke="black" d="M63.79,-157.41C38.92,-143.87 8.54,-121.04 19.52,-94.21"/>
</g>
<!-- tabellen_tasks&#45;&gt;tabellen_events -->
<g id="edge25" class="edge">
<title>tabellen_tasks&#45;&gt;tabellen_events</title><style>.edge>path:hover{stroke-width:8}</style>
<path fill="none" stroke="black" d="M105.88,-154.43C113.96,-144.63 124.46,-131.9 133.71,-120.67"/>
<polygon fill="#c43189" stroke="black" points="136.52,-122.76 140.18,-112.82 131.12,-118.31 136.52,-122.76"/>
</g>
<!-- tabellen_utils -->
<g id="node21" class="node">
<title>tabellen_utils</title><style>.edge>path:hover{stroke-width:8}</style>
<ellipse fill="#ce3b93" stroke="black" cx="562.52" cy="-328.49" rx="41.59" ry="18"/>
<text text-anchor="middle" x="562.52" y="-325.99" font-family="Helvetica,sans-Serif" font-size="10.00" fill="#ffffff">tabellen.utils</text>
</g>
<!-- tabellen_utils&#45;&gt;tabellen_clients -->
<g id="edge26" class="edge">
<title>tabellen_utils&#45;&gt;tabellen_clients</title><style>.edge>path:hover{stroke-width:8}</style>
<path fill="none" stroke="black" d="M534.56,-315.1C513.53,-305.01 484.66,-289.51 462.52,-271.28 455.4,-265.42 422.92,-226.57 400.5,-199.41"/>
<polygon fill="#ce3b93" stroke="black" points="402.96,-196.9 393.9,-191.41 397.56,-201.36 402.96,-196.9"/>
</g>
<!-- tabellen_utils&#45;&gt;tabellen_sheets -->
<g id="edge27" class="edge">
<title>tabellen_utils&#45;&gt;tabellen_sheets</title><style>.edge>path:hover{stroke-width:8}</style>
<path fill="none" stroke="black" d="M533.36,-315.38C502.06,-302.38 452.15,-281.65 417.49,-267.25"/>
<polygon fill="#ce3b93" stroke="black" points="418.72,-263.98 408.15,-263.37 416.04,-270.44 418.72,-263.98"/>
</g>
</g>
</svg>
